<svg id="图层_1" data-name="图层 1" xmlns="http://www.w3.org/2000/svg" viewBox="0 0 200 200"><defs><style>.cls-1{fill:#00a0ff;}</style></defs><title>画板 1</title><path class="cls-1" d="M47.46,179.91c-16.83,0-32.17-14.64-32.17-30.71v-88c0-16.3,14.25-30.07,31.12-30.07a4.92,4.92,0,0,1,0,9.84c-11.53,0-21.28,9.27-21.28,20.24v88c0,10.73,10.85,20.87,22.33,20.87h113.2c10.34,0,18.14-9,18.14-20.87v-88c0-11.35-8.66-20.24-19.72-20.24a4.92,4.92,0,1,1,0-9.84c16.57,0,29.56,13.21,29.56,30.07v88c0,17.51-12,30.71-28,30.71H47.46Z"/><path class="cls-1" d="M52.91,90a4.92,4.92,0,0,1,0-9.84H65.18a4.92,4.92,0,0,1,0,9.84Z"/><path class="cls-1" d="M93.79,90a4.92,4.92,0,0,1,0-9.84h12.26a4.92,4.92,0,1,1,0,9.84Z"/><path class="cls-1" d="M138.76,90a4.92,4.92,0,0,1,0-9.84H151A4.92,4.92,0,1,1,151,90Z"/><path class="cls-1" d="M52.91,114.5a4.92,4.92,0,0,1,0-9.84H65.18a4.92,4.92,0,0,1,0,9.84Z"/><path class="cls-1" d="M93.79,114.5a4.92,4.92,0,0,1,0-9.84h12.26a4.92,4.92,0,0,1,0,9.84Z"/><path class="cls-1" d="M138.76,114.5a4.92,4.92,0,0,1,0-9.84H151a4.92,4.92,0,1,1,0,9.84Z"/><path class="cls-1" d="M52.91,139a4.92,4.92,0,0,1,0-9.84H65.18a4.92,4.92,0,0,1,0,9.84Z"/><path class="cls-1" d="M93.79,139a4.92,4.92,0,0,1,0-9.84h12.26a4.92,4.92,0,0,1,0,9.84Z"/><path class="cls-1" d="M138.76,139a4.92,4.92,0,0,1,0-9.84H151a4.92,4.92,0,1,1,0,9.84Z"/><path class="cls-1" d="M44.74,40.92a4.92,4.92,0,1,1,0-9.84H155.11a4.92,4.92,0,1,1,0,9.84Z"/><path class="cls-1" d="M65.18,53.18a4.92,4.92,0,0,1-4.92-4.92V23.74a4.92,4.92,0,0,1,9.84,0V48.27A4.92,4.92,0,0,1,65.18,53.18Z"/><path class="cls-1" d="M138.76,53.18a4.92,4.92,0,0,1-4.92-4.92V23.74a4.92,4.92,0,0,1,9.84,0V48.27A4.92,4.92,0,0,1,138.76,53.18Z"/></svg>