<svg id="图层_1" data-name="图层 1" xmlns="http://www.w3.org/2000/svg" viewBox="0 0 50 50"><title>画板 1 副本 10</title><g id="打印"><path d="M47.5,22.85c0-1.8-1.9-3.27-4.22-3.27h-.94V16.32a2.83,2.83,0,0,0-2.23-2.75V11.78L30.69,2.5H9.88V13.57a2.83,2.83,0,0,0-2.23,2.75v3.26H6.72c-2.32,0-4.22,1.47-4.22,3.27v13A4.23,4.23,0,0,0,6.72,40H9.88V47.5H40.12V40h3.16a4.23,4.23,0,0,0,4.22-4.22ZM36.78,11.46H30.66v-6ZM28.55,5.32v8.26H37.3v6H12.7V5.32ZM37.3,44.68H12.7V33.14H37.3Zm6-8.16H40.12v-6.2H9.88v6.2H6.72a.71.71,0,0,1-.7-.7V26.07H44v9.75A.71.71,0,0,1,43.28,36.52Z"/></g></svg>